<?xml version="1.0" standalone="no"?>
<!DOCTYPE svg PUBLIC "-//W3C//DTD SVG 20010904//EN"
 "http://www.w3.org/TR/2001/REC-SVG-20010904/DTD/svg10.dtd">
<svg version="1.0" xmlns="http://www.w3.org/2000/svg"
 width="512.000000pt" height="512.000000pt" viewBox="0 0 512.000000 512.000000"
 preserveAspectRatio="xMidYMid meet">

<g transform="translate(0.000000,512.000000) scale(0.100000,-0.100000)"
fill="#000000" stroke="none">
<path d="M150 3880 c-96 -45 -144 -118 -145 -220 0 -48 6 -77 22 -110 17 -35
286 -295 1194 -1155 644 -610 1189 -1122 1211 -1137 72 -49 184 -49 256 0 22
15 567 527 1211 1137 908 860 1177 1120 1194 1155 30 61 30 158 0 216 -64 121
-220 169 -334 102 -22 -13 -524 -483 -1116 -1043 -592 -561 -1080 -1020 -1083
-1020 -3 0 -491 459 -1083 1020 -592 560 -1094 1030 -1117 1043 -58 35 -150
40 -210 12z"/>
</g>
</svg>
